<svg version="1.1" xmlns="http://www.w3.org/2000/svg" xmlns:xlink="http://www.w3.org/1999/xlink" width="156.63254" height="40.00157" viewBox="748,403.60001,156.63254,40.00157"><defs><clipPath id="clip-1"><rect x="748" y="403.60001" width="40" height="40" id="clip-1" fill="none" stroke="none" stroke-width="1"/></clipPath><linearGradient x1="768.0016" y1="407.50626" x2="768.0016" y2="439.72701" gradientUnits="userSpaceOnUse" id="color-1"><stop offset="0" stop-color="#a4c1ff"/><stop offset="1" stop-color="#0e78f9"/></linearGradient><linearGradient x1="764.9531" y1="417.50621" x2="764.9531" y2="429.65471" gradientUnits="userSpaceOnUse" id="color-2"><stop offset="0" stop-color="#ffffff"/><stop offset="1" stop-color="#c5d4f7"/></linearGradient><linearGradient x1="764.9531" y1="417.50621" x2="764.9531" y2="429.65471" gradientUnits="userSpaceOnUse" id="color-3"><stop offset="0" stop-color="#ffffff"/><stop offset="1" stop-color="#637aca"/></linearGradient><linearGradient x1="776.3008" y1="417.62341" x2="776.3008" y2="429.56731" gradientUnits="userSpaceOnUse" id="color-4"><stop offset="0" stop-color="#ffffff"/><stop offset="1" stop-color="#c5d4f7"/></linearGradient><linearGradient x1="776.3008" y1="417.62341" x2="776.3008" y2="429.56731" gradientUnits="userSpaceOnUse" id="color-5"><stop offset="0" stop-color="#ffffff"/><stop offset="1" stop-color="#637aca"/></linearGradient></defs><g fill="none" fill-rule="nonzero" stroke="none" stroke-width="none" stroke-linecap="butt" stroke-linejoin="miter" stroke-miterlimit="10" stroke-dasharray="" stroke-dashoffset="0" font-family="none" font-weight="none" font-size="none" text-anchor="none" style="mix-blend-mode: normal"><text x="1257.93869" y="533.99134" transform="scale(0.67278,0.81247)" id="PointText 1" fill="#ffffff" stroke="none" stroke-width="1" font-family="font-Archivo-Bold" font-weight="normal" font-size="40" text-anchor="middle">JoinFlow</text><g><g clip-path="url(#clip-1)" id="Group 1"><path d="M763.3419,407.51458c0.5969,0.00415 1.1934,0.0083 1.7628,0.0083h5.7938c0.5694,0 1.1659,-0.00415 1.7628,-0.0083c1.6068,-0.01118 3.216,-0.02238 4.3051,0.04737c3.9649,0.2539 6.6993,2.65625 7.0508,6.73826c0.0834,1.4669 0.0814,3.2339 0.079,5.3178v0.0006c-0.0004,0.3577 -0.0008,0.7247 -0.0008,1.1011v5.7938c0,0.3764 0.0004,0.7434 0.0008,1.1011c0.0024,2.0842 0.0044,3.8514 -0.079,5.3184c-0.3515,4.0821 -3.0859,6.4844 -7.0508,6.7383c-1.0891,0.0698 -2.6983,0.0586 -4.3051,0.0474c-0.5969,-0.0042 -1.1934,-0.0083 -1.7628,-0.0083h-5.7938c-0.5694,0 -1.1659,0.0041 -1.7628,0.0083c-1.6068,0.0112 -3.216,0.0224 -4.3051,-0.0474c-3.96488,-0.2539 -6.69926,-2.6562 -7.05082,-6.7383c-0.08335,-1.4668 -0.08134,-3.2339 -0.07897,-5.3178v-0.0006c0.00041,-0.3577 0.00083,-0.7247 0.00083,-1.1011v-5.7938c0,-0.3764 -0.00042,-0.7434 -0.00083,-1.1011v-0.0006c-0.00237,-2.0839 -0.00438,-3.8509 0.07897,-5.3178c0.35156,-4.08201 3.08594,-6.48436 7.05082,-6.73826c1.0891,-0.06975 2.6983,-0.05855 4.3051,-0.04737z" id="Path 1" fill="url(#color-1)" stroke="none" stroke-width="1"/><g id="Group 1"><path d="M757.14062,418.99061c0,-0.8198 0.66458,-1.4844 1.48438,-1.4844h10.3906c2.0711,0 3.75,1.679 3.75,3.75v6.9141c0,0.8198 -0.6646,1.4844 -1.4844,1.4844h-10.3906c-2.071,0 -3.74998,-1.6789 -3.74998,-3.75z" id="Path 1" fill="url(#color-2)" stroke="none" stroke-width="1"/><path d="M757.31641,418.99061c0,-0.7227 0.58587,-1.3086 1.30859,-1.3086h10.3906c1.974,0 3.5742,1.6003 3.5742,3.5742v6.9141c0,0.7227 -0.5858,1.3086 -1.3086,1.3086h-10.3906c-1.974,0 -3.57419,-1.6002 -3.57419,-3.5742z" id="Path 1" fill="none" stroke="url(#color-3)" stroke-width="0.35156"/></g><g id="Group 1"><path d="M773.7031,421.80731c0,-0.5053 0.2174,-0.9861 0.5968,-1.3198l2.977,-2.6188c0.6308,-0.555 1.6215,-0.107 1.6215,0.7332v9.9869c0,0.8324 -0.9745,1.2832 -1.6088,0.7442l-2.7327,-2.3217c-0.5416,-0.4602 -0.8538,-1.135 -0.8538,-1.8457z" id="Path 1" fill="url(#color-4)" stroke="none" stroke-width="1"/><path d="M773.8789,421.80731c0,-0.4547 0.1957,-0.8875 0.5371,-1.1878l2.977,-2.6188c0.5173,-0.4551 1.3297,-0.0878 1.3297,0.6012v9.9869c0,0.6825 -0.7992,1.0522 -1.3193,0.6103l-2.7327,-2.3218c-0.5023,-0.4267 -0.7918,-1.0526 -0.7918,-1.7117z" id="Path 1" fill="none" stroke="url(#color-5)" stroke-width="0.35156"/></g></g></g></g></svg>